<svg width="48" height="40" viewBox="0 0 48 40" fill="none" xmlns="http://www.w3.org/2000/svg">
<path d="M31 15.5H17V12C23 8.39995 28.8333 10.5 31 12V15.5Z" stroke="#544E50"/>
<circle cx="24" cy="4" r="3.5" stroke="#544E50"/>
<path d="M6.55682 36.5V27.7727H9.50568C10.1903 27.7727 10.75 27.8963 11.1847 28.1435C11.6222 28.3878 11.946 28.7188 12.1562 29.1364C12.3665 29.554 12.4716 30.0199 12.4716 30.5341C12.4716 31.0483 12.3665 31.5156 12.1562 31.9361C11.9489 32.3565 11.6278 32.6918 11.1932 32.9418C10.7585 33.1889 10.2017 33.3125 9.52273 33.3125H7.40909V32.375H9.48864C9.95739 32.375 10.3338 32.294 10.6179 32.1321C10.902 31.9702 11.108 31.7514 11.2358 31.4759C11.3665 31.1974 11.4318 30.8835 11.4318 30.5341C11.4318 30.1847 11.3665 29.8722 11.2358 29.5966C11.108 29.321 10.9006 29.1051 10.6136 28.9489C10.3267 28.7898 9.94602 28.7102 9.47159 28.7102H7.61364V36.5H6.55682ZM14.0376 36.5V29.9545H15.0092V30.9432H15.0774C15.1967 30.6193 15.4126 30.3565 15.7251 30.1548C16.0376 29.9531 16.3899 29.8523 16.782 29.8523C16.8558 29.8523 16.9482 29.8537 17.0589 29.8565C17.1697 29.8594 17.2536 29.8636 17.3104 29.8693V30.892C17.2763 30.8835 17.1982 30.8707 17.076 30.8537C16.9567 30.8338 16.8303 30.8239 16.6967 30.8239C16.3786 30.8239 16.0945 30.8906 15.8445 31.0241C15.5973 31.1548 15.4013 31.3366 15.2564 31.5696C15.1143 31.7997 15.0433 32.0625 15.0433 32.358V36.5H14.0376ZM20.9624 36.6364C20.3714 36.6364 19.853 36.4957 19.407 36.2145C18.9638 35.9332 18.6172 35.5398 18.3672 35.0341C18.12 34.5284 17.9964 33.9375 17.9964 33.2614C17.9964 32.5795 18.12 31.9844 18.3672 31.4759C18.6172 30.9673 18.9638 30.5724 19.407 30.2912C19.853 30.0099 20.3714 29.8693 20.9624 29.8693C21.5533 29.8693 22.0703 30.0099 22.5135 30.2912C22.9595 30.5724 23.3061 30.9673 23.5533 31.4759C23.8033 31.9844 23.9283 32.5795 23.9283 33.2614C23.9283 33.9375 23.8033 34.5284 23.5533 35.0341C23.3061 35.5398 22.9595 35.9332 22.5135 36.2145C22.0703 36.4957 21.5533 36.6364 20.9624 36.6364ZM20.9624 35.733C21.4112 35.733 21.7805 35.6179 22.0703 35.3878C22.3601 35.1577 22.5746 34.8551 22.7138 34.4801C22.853 34.1051 22.9226 33.6989 22.9226 33.2614C22.9226 32.8239 22.853 32.4162 22.7138 32.0384C22.5746 31.6605 22.3601 31.3551 22.0703 31.1222C21.7805 30.8892 21.4112 30.7727 20.9624 30.7727C20.5135 30.7727 20.1442 30.8892 19.8544 31.1222C19.5646 31.3551 19.3501 31.6605 19.2109 32.0384C19.0717 32.4162 19.0021 32.8239 19.0021 33.2614C19.0021 33.6989 19.0717 34.1051 19.2109 34.4801C19.3501 34.8551 19.5646 35.1577 19.8544 35.3878C20.1442 35.6179 20.5135 35.733 20.9624 35.733ZM28.3782 29.9545V30.8068H24.8498V29.9545H28.3782ZM25.9066 36.5V29.0511C25.9066 28.6761 25.9947 28.3636 26.1708 28.1136C26.3469 27.8636 26.5756 27.6761 26.8569 27.5511C27.1381 27.4261 27.435 27.3636 27.7475 27.3636C27.9947 27.3636 28.1964 27.3835 28.3526 27.4233C28.5089 27.4631 28.6254 27.5 28.7021 27.5341L28.4123 28.4034C28.3612 28.3864 28.2901 28.3651 28.1992 28.3395C28.1112 28.3139 27.9947 28.3011 27.8498 28.3011C27.5174 28.3011 27.2773 28.3849 27.1296 28.5526C26.9847 28.7202 26.9123 28.9659 26.9123 29.2898V36.5H25.9066ZM29.7876 36.5V29.9545H30.7933V36.5H29.7876ZM30.299 28.8636C30.103 28.8636 29.9339 28.7969 29.7919 28.6634C29.6527 28.5298 29.5831 28.3693 29.5831 28.1818C29.5831 27.9943 29.6527 27.8338 29.7919 27.7003C29.9339 27.5668 30.103 27.5 30.299 27.5C30.495 27.5 30.6626 27.5668 30.8018 27.7003C30.9439 27.8338 31.0149 27.9943 31.0149 28.1818C31.0149 28.3693 30.9439 28.5298 30.8018 28.6634C30.6626 28.7969 30.495 28.8636 30.299 28.8636ZM33.641 27.7727V36.5H32.6353V27.7727H33.641ZM38.2273 36.6364C37.5966 36.6364 37.0526 36.4972 36.5952 36.2188C36.1406 35.9375 35.7898 35.5455 35.5426 35.0426C35.2983 34.5369 35.1761 33.9489 35.1761 33.2784C35.1761 32.608 35.2983 32.017 35.5426 31.5057C35.7898 30.9915 36.1335 30.5909 36.5739 30.304C37.017 30.0142 37.5341 29.8693 38.125 29.8693C38.4659 29.8693 38.8026 29.9261 39.1349 30.0398C39.4673 30.1534 39.7699 30.3381 40.0426 30.5938C40.3153 30.8466 40.5327 31.1818 40.6946 31.5994C40.8565 32.017 40.9375 32.5312 40.9375 33.142V33.5682H35.892V32.6989H39.9148C39.9148 32.3295 39.8409 32 39.6932 31.7102C39.5483 31.4205 39.3409 31.1918 39.071 31.0241C38.804 30.8565 38.4886 30.7727 38.125 30.7727C37.7244 30.7727 37.3778 30.8722 37.0852 31.071C36.7955 31.267 36.5724 31.5227 36.4162 31.8381C36.2599 32.1534 36.1818 32.4915 36.1818 32.8523V33.4318C36.1818 33.9261 36.267 34.3452 36.4375 34.6889C36.6108 35.0298 36.8509 35.2898 37.1577 35.4688C37.4645 35.6449 37.821 35.733 38.2273 35.733C38.4915 35.733 38.7301 35.696 38.9432 35.6222C39.1591 35.5455 39.3452 35.4318 39.5014 35.2812C39.6577 35.1278 39.7784 34.9375 39.8636 34.7102L40.8352 34.983C40.733 35.3125 40.5611 35.6023 40.3196 35.8523C40.0781 36.0994 39.7798 36.2926 39.4247 36.4318C39.0696 36.5682 38.6705 36.6364 38.2273 36.6364Z" fill="#544E50"/>
</svg>
