<svg width="48" height="17" viewBox="0 0 48 17" fill="none" xmlns="http://www.w3.org/2000/svg">
<circle cx="31.5" cy="12.5" r="4.5" fill="#544E50"/>
<g clip-path="url(#clip0_1_199)">
<path d="M17 2.828C17.885 2.458 19.154 2.059 20.388 1.935C21.718 1.801 22.846 1.998 23.5 2.687V12.433C22.565 11.903 21.38 11.83 20.287 11.94C19.107 12.06 17.917 12.401 17 12.751V2.828ZM24.5 2.687C25.154 1.998 26.282 1.801 27.612 1.935C28.846 2.059 30.115 2.458 31 2.828V12.751C30.082 12.401 28.893 12.059 27.713 11.941C26.619 11.83 25.435 11.902 24.5 12.433V2.687ZM24 1.783C23.015 0.936003 21.587 0.810003 20.287 0.940003C18.773 1.093 17.245 1.612 16.293 2.045C16.2056 2.08473 16.1316 2.14876 16.0796 2.22944C16.0277 2.31012 16 2.40404 16 2.5V13.5C16 13.5837 16.021 13.666 16.0611 13.7394C16.1012 13.8128 16.1591 13.875 16.2294 13.9203C16.2998 13.9656 16.3803 13.9925 16.4638 13.9986C16.5472 14.0046 16.6308 13.9896 16.707 13.955C17.589 13.555 19.01 13.074 20.387 12.935C21.796 12.793 22.977 13.022 23.61 13.812C23.6569 13.8704 23.7162 13.9175 23.7837 13.9499C23.8512 13.9823 23.9251 13.9991 24 13.9991C24.0749 13.9991 24.1488 13.9823 24.2163 13.9499C24.2838 13.9175 24.3431 13.8704 24.39 13.812C25.023 13.022 26.204 12.793 27.612 12.935C28.99 13.074 30.412 13.555 31.293 13.955C31.3692 13.9896 31.4528 14.0046 31.5362 13.9986C31.6197 13.9925 31.7002 13.9656 31.7706 13.9203C31.8409 13.875 31.8988 13.8128 31.9389 13.7394C31.979 13.666 32 13.5837 32 13.5V2.5C32 2.40404 31.9723 2.31012 31.9204 2.22944C31.8684 2.14876 31.7944 2.08473 31.707 2.045C30.755 1.612 29.227 1.093 27.713 0.940003C26.413 0.809003 24.985 0.936003 24 1.783Z" fill="#544E50"/>
</g>
<path d="M31.0068 14.1363V14.1034C31.0104 13.7546 31.0469 13.477 31.1163 13.2706C31.1857 13.0642 31.2844 12.8971 31.4122 12.7693C31.54 12.6414 31.6935 12.5236 31.8724 12.4159C31.9802 12.3502 32.077 12.2725 32.1628 12.183C32.2486 12.0917 32.3162 11.9867 32.3655 11.868C32.4167 11.7493 32.4422 11.6178 32.4422 11.4735C32.4422 11.2946 32.4002 11.1393 32.3162 11.0078C32.2322 10.8763 32.1199 10.775 31.9793 10.7037C31.8386 10.6325 31.6825 10.5969 31.5108 10.5969C31.3611 10.5969 31.2168 10.628 31.078 10.69C30.9392 10.7521 30.8232 10.8498 30.7301 10.9832C30.6369 11.1165 30.5831 11.2909 30.5685 11.5064H29.8781C29.8927 11.1959 29.9731 10.9302 30.1192 10.7092C30.2671 10.4882 30.4616 10.3193 30.7027 10.2024C30.9456 10.0855 31.215 10.0271 31.5108 10.0271C31.8323 10.0271 32.1117 10.091 32.3491 10.2189C32.5883 10.3467 32.7728 10.522 32.9025 10.7448C33.034 10.9676 33.0997 11.2215 33.0997 11.5064C33.0997 11.7073 33.0687 11.889 33.0066 12.0516C32.9463 12.2141 32.8586 12.3593 32.7436 12.4871C32.6303 12.615 32.4934 12.7282 32.3327 12.8268C32.1719 12.9273 32.0432 13.0332 31.9464 13.1446C31.8496 13.2542 31.7793 13.3847 31.7355 13.5363C31.6916 13.6879 31.6679 13.8769 31.6642 14.1034V14.1363H31.0068ZM31.3574 15.758C31.2223 15.758 31.1063 15.7096 31.0095 15.6128C30.9127 15.516 30.8643 15.4001 30.8643 15.2649C30.8643 15.1298 30.9127 15.0138 31.0095 14.917C31.1063 14.8202 31.2223 14.7718 31.3574 14.7718C31.4926 14.7718 31.6085 14.8202 31.7053 14.917C31.8021 15.0138 31.8505 15.1298 31.8505 15.2649C31.8505 15.3544 31.8277 15.4366 31.782 15.5115C31.7382 15.5864 31.6788 15.6466 31.604 15.6923C31.5309 15.7361 31.4487 15.758 31.3574 15.758Z" fill="white"/>
<defs>
<clipPath id="clip0_1_199">
<rect width="16" height="16" fill="white" transform="translate(16)"/>
</clipPath>
</defs>
</svg>
